<?xml version="1.0" encoding="utf-8"?>
<!-- Generator: Adobe Illustrator 16.0.3, SVG Export Plug-In . SVG Version: 6.00 Build 0)  -->
<!DOCTYPE svg PUBLIC "-//W3C//DTD SVG 1.1//EN" "http://www.w3.org/Graphics/SVG/1.1/DTD/svg11.dtd">
<svg version="1.1" xmlns="http://www.w3.org/2000/svg" xmlns:xlink="http://www.w3.org/1999/xlink" x="0px" y="0px" width="764px"
	 height="139px" viewBox="0 0 764 139" enable-background="new 0 0 764 139" xml:space="preserve">
<g id="Layer_2">
	<g>
		<g id="XMLID_2_">
			<g>
				<path d="M216.11,57.068c6.232,3.506,3.116,14.608,0,20.061c-3.116,5.454-12.855,8.375-22.009,9.35
					c-9.154,0.974-7.207,0.194-8.959,5.453s-6.427,9.738-18.309,22.983c-9.446,10.529-20.984,15.765-46.465,15.71
					c6.365-0.323,13.03-1.122,20.366-2.271c26.099-4.091,45.187-41.292,45.966-42.071c0.779-0.779,15.329,2.446,27.463-8.765
					c6.326-5.843,4.772-17.245,0.584-19.867c-4.188-2.622-8.57-3.311-14.413-3.311c-3.537,0-5.236-0.798-5.236-1.25
					c0-0.292,0.721-0.436,2.119-0.113C200.766,53.795,209.877,53.562,216.11,57.068z"/>
				<path fill="#FF3366" d="M214.747,57.652c4.188,2.622,5.742,14.024-0.584,19.867c-12.134,11.211-26.684,7.985-27.463,8.765
					c-0.779,0.779-19.867,37.98-45.966,42.071c-7.335,1.148-14,1.947-20.366,2.271c-6.443-0.016-13.786-0.37-22.204-1.063
					c-8.819-1.383-17.962-4.008-28.522-8.219c-6.72-2.681-12.173-6.506-16.587-10.764C39.818,97.798,35.946,81.11,35.362,79.821
					c-0.779-1.719-6.342-19.442-13.984-22.948C13.734,53.367,7.704,49.277,8.094,46.55c0.39-2.727,5.294-15.971,15.582-16.75
					c5.337-0.405,8.333-0.179,9.98,0.128c1.2,0.343,1.901,0.65,1.901,0.65l1.558,0.323L99.96,41.809l92.618,10.907l2.52,0.374
					c0,0.452,1.699,1.25,5.236,1.25C206.176,54.341,210.559,55.03,214.747,57.652z M213.683,68.875
					c0.315-3.623,0.966-5.143-3.806-5.964c-5.648-0.975-8.959-2.532-9.738-1.559c-0.732,0.912-1.118,2.341-1.165,2.513l-1.441-0.133
					l0.074-0.821c0,0-0.148,0.163-0.39,0.451c-1.593,1.89-7.343,9.154-3.116,10.846c4.869,1.947,19.477,2.142,19.477-3.117
					c0-0.42,0.012-0.817,0.035-1.195C213.687,69.561,213.707,69.218,213.683,68.875z M30.231,34.069
					c0.888-1.367-7.3-1.936-7.3-1.936c-1.5-0.499-4.721,2.193-4.721,2.193s-1.921,3.401-1.691,3.401l0.99,0.027
					c-1.808,1.585-5.259,4.885-5.041,6.751c0.296,2.524,5.442,5.485,9.416,5.5C25.853,50.021,29.343,35.44,30.231,34.069z"/>
				<path d="M209.877,62.911c4.772,0.821,4.122,2.341,3.806,5.964c-0.094-1.306-0.83-2.63-1.664-3.821
					c-1.788-2.556-8.375-2.532-9.933-2.922c-1.559-0.39-3.117,1.753-3.117,1.753s0-0.008,0.004-0.02
					c0.047-0.172,0.433-1.601,1.165-2.513C200.917,60.379,204.229,61.937,209.877,62.911z"/>
				<path d="M213.683,68.875c0.023,0.343,0.004,0.686-0.07,1.021C213.628,69.537,213.656,69.198,213.683,68.875z"/>
				<path d="M213.613,69.896c-0.023,0.378-0.035,0.775-0.035,1.195c0,5.259-14.608,5.064-19.477,3.117
					c-4.227-1.691,1.523-8.956,3.116-10.846c0.242-0.288,0.39-0.451,0.39-0.451l-0.074,0.821l-0.121,1.321
					c0,0-5.454,4.674-3.311,7.596s12.068,2.652,16.556,0.39C212.499,72.108,213.359,71.025,213.613,69.896z"/>
				<polygon points="192.578,52.716 99.96,41.809 37.115,30.902 				"/>
				<path d="M120.368,130.625c-7.604,0.386-14.791,0.102-22.204-1.063C106.582,130.255,113.925,130.609,120.368,130.625z"/>
				<path d="M98.164,129.562c-0.16-0.012-0.315-0.027-0.476-0.039c-20.423-1.702-34.696-9.419-44.646-18.932l0.012-0.012
					c4.414,4.258,9.867,8.083,16.587,10.764C80.202,125.554,89.345,128.179,98.164,129.562z"/>
				<path d="M53.055,110.579l-0.012,0.012c-10.545-10.089-16.232-22.2-19.239-31.319c-5.843-17.724-7.012-16.36-10.128-19.477
					c-3.116-3.116-14.802-8.18-16.166-11.686c-1.363-3.506,3.701-14.024,11.881-17.53c5.757-2.466,11.417-1.46,14.265-0.65
					c-1.648-0.308-4.644-0.534-9.98-0.128C13.388,30.579,8.483,43.823,8.094,46.55c-0.39,2.727,5.641,6.817,13.284,10.323
					c7.643,3.506,13.205,21.229,13.984,22.948C35.946,81.11,39.818,97.798,53.055,110.579z"/>
				<path d="M33.656,29.928c1.531,0.288,1.901,0.65,1.901,0.65S34.855,30.271,33.656,29.928z"/>
				<path d="M22.932,32.133c0,0,8.188,0.569,7.3,1.936c-0.888,1.372-4.378,15.952-8.348,15.937c-3.974-0.016-9.119-2.976-9.416-5.5
					c-0.218-1.866,3.233-5.166,5.041-6.751c0.561-0.495,0.966-0.826,1.048-0.888c-0.362,0.362-7.74,7.841-3.424,10.097
					c4.421,2.306,8.04,4.223,10.307-2.021c1.944-5.356,4.188-9.825,2.863-10.615c-0.218-0.132-0.542-0.164-0.978-0.078
					c-3.058,0.6-6.459-2.583-9.556,1.874c-0.814,1.172-1.168,1.605-1.25,1.605c-0.23,0,1.691-3.401,1.691-3.401
					S21.432,31.634,22.932,32.133z"/>
			</g>
			<g>
			</g>
		</g>
		<g id="XMLID_1_">
			<g>
				<path d="M190.075,44.688c2.758,4.195,3.896,7.923,3.896,10.627c0,10.127-9.349,33.89-41.681,40.123s-63.106,4.675-90.374-4.675
					c-14-4.799-23.275-11.55-28.936-18.881l0.031-0.023c5.38,6.98,15.722,12.356,36.306,19.294
					c34.669,11.687,80.004,7.012,99.333-2.727c0,0,11.296-5.063,20.256-19.866c8.959-14.803,3.358-25.321-16.75-38.176
					c-20.108-12.854-47.688-20.938-74.403-19.867c-26.715,1.071-47.524,9.739-53.368,15.192c-3.72,3.471-6.333,4.102-7.74,4.102
					c-0.807,0-1.22-0.207-1.22-0.207s28.047-27.658,85.31-18.309C162.713,18.148,182.502,33.169,190.075,44.688z"/>
				<path fill="#FF3366" d="M172.156,30.384c20.108,12.855,25.709,23.373,16.75,38.176c-8.959,14.803-20.256,19.866-20.256,19.866
					c-19.329,9.738-64.665,14.413-99.333,2.727c-20.583-6.938-30.926-12.313-36.306-19.294c-3.681-4.771-5.037-10.299-5.765-17.587
					C25.676,38.564,37.764,33.89,37.764,33.89l0.779-2.727c0,0-0.37,0.16-0.982,0.499l-0.915-1.85c1.406,0,4.02-0.631,7.74-4.102
					c5.843-5.454,26.653-14.121,53.368-15.192C124.468,9.446,152.048,17.529,172.156,30.384z"/>
				<path d="M38.543,31.163l-0.779,2.727c0,0-12.087,4.675-10.518,20.381c0.729,7.289,2.084,12.816,5.765,17.587l-0.031,0.023
					c-5.364-6.949-7.483-14.417-7.292-21.242c0.323-11.612,8.928-17.35,11.873-18.979C38.173,31.323,38.543,31.163,38.543,31.163z"
					/>
			</g>
			<g>
			</g>
		</g>
		<g>
			<path d="M35.426,29.605c0,0,28.047-27.658,85.31-18.309c41.979,6.854,61.767,21.872,69.339,33.392
				c2.757,4.194,3.895,7.924,3.895,10.627c0,10.127-9.349,33.889-41.682,40.123c-32.332,6.233-63.106,4.674-90.374-4.674
				c-27.268-9.351-36.617-26.101-36.228-40.124c0.39-14.024,12.855-19.478,12.855-19.478l-0.779,2.727
				c0,0-12.088,4.674-10.518,20.382c1.793,17.939,7.401,25.194,42.071,36.88s80.006,7.013,99.333-2.728
				c0,0,11.297-5.063,20.256-19.866c8.959-14.803,3.357-25.319-16.75-38.175c-20.107-12.855-47.688-20.938-74.403-19.867
				S50.229,20.257,44.386,25.71C38.542,31.164,35.426,29.605,35.426,29.605z"/>
			<path d="M18.44,36.852c0,0-7.861,7.803-3.438,10.111c4.422,2.308,8.041,4.224,10.309-2.023c1.944-5.353,4.187-9.823,2.863-10.615
				c-0.221-0.132-0.541-0.161-0.978-0.076c-3.058,0.6-6.461-2.583-9.556,1.875c-3.096,4.458,0.441-1.797,0.441-1.797
				s3.219-2.692,4.719-2.191c0,0,8.188,0.566,7.3,1.936c-0.887,1.369-4.376,15.949-8.349,15.935
				c-3.973-0.015-9.118-2.976-9.415-5.497C12.041,41.985,18.44,36.852,18.44,36.852z"/>
			<path d="M35.426,30.58c0,0-7.986-3.506-16.166,0C11.08,34.085,6.016,44.603,7.379,48.109c1.364,3.506,13.05,8.57,16.166,11.687
				c3.117,3.117,4.285,1.752,10.128,19.477c5.843,17.724,21.814,46.745,63.885,50.251c42.071,3.506,57.263-1.363,69.144-14.608
				c11.881-13.243,16.556-17.724,18.309-22.982s-0.195-4.479,8.96-5.454c9.154-0.974,18.893-3.896,22.009-9.349
				c3.116-5.454,6.233-16.556,0-20.062c-6.233-3.506-15.344-3.273-18.893-4.091c-3.549-0.816-2.728,1.364,3.116,1.364
				s10.226,0.691,14.413,3.311c4.188,2.621,5.741,14.023-0.584,19.867c-12.134,11.209-26.684,7.985-27.463,8.765
				c-0.778,0.779-19.866,37.98-45.965,42.07c-26.521,4.156-44.213,3.701-71.092-7.012c-26.878-10.712-33.5-39.801-34.28-41.521
				c-0.779-1.719-6.342-19.442-13.984-22.949C13.605,53.368,7.574,49.277,7.963,46.55c0.389-2.727,5.295-15.971,15.582-16.75
				C33.832,29.021,35.426,30.58,35.426,30.58z"/>
			<path d="M197.477,62.912c0,0-0.146,0.162-0.389,0.449c-1.593,1.891-7.344,9.156-3.117,10.847
				c4.869,1.947,19.477,2.143,19.477-3.116s1.948-7.206-3.701-8.18c-5.648-0.975-8.959-2.532-9.738-1.56
				c-0.779,0.975-1.169,2.533-1.169,2.533s1.559-2.143,3.117-1.754c1.558,0.39,8.147,0.367,9.933,2.922
				c1.787,2.555,3.124,5.724-1.363,7.985c-4.487,2.263-14.413,2.532-16.555-0.389c-2.143-2.922,3.311-7.597,3.311-7.597
				L197.477,62.912z"/>
			<path d="M101.843,42.266c0,0,2.337,4.09,5.259,3.7c2.922-0.389,5.259-1.837,5.259-1.837l1.753-7.512l1.753-2.727
				c0,0-3.701,2.143-8.375,1.363s-6.428-3.182-6.428-3.182L101.843,42.266z"/>
			<path d="M97.948,34.799c0,0-6.272-4.746-4.479-8.504c2.088-4.378,11.363-4.513,15.187-4.35
				c5.022,0.214,15.977,1.655,16.172,7.093c0.195,5.438-3.701,6.801-5.843,7.58c-2.143,0.779-7.791,3.311-11.687,2.922
				C103.401,39.149,97.948,34.799,97.948,34.799z"/>
		</g>
	</g>
	<g>
		<path d="M277.692,39.022c4.479,0,8.847,0.112,13.326,2.352c6.383,3.248,9.855,9.854,9.855,16.798
			c0,9.294-5.711,17.133-14.222,19.485l16.125,31.132h-8.734l-15.454-30.796h-13.55v30.796h-7.951V39.022H277.692z M265.038,71.161
			h13.55c2.688,0,5.375-0.112,8.063-1.456c4.031-2.016,6.159-6.158,6.159-10.638c0-4.591-2.24-8.958-6.607-11.198
			c-2.8-1.456-5.6-1.568-8.511-1.568h-12.654V71.161z"/>
		<path d="M335.25,110.132c-12.878,0-23.853-10.975-23.853-26.54c0-15.79,11.198-27.101,24.188-27.101
			c11.647,0,22.733,9.183,22.733,26.876C358.319,100.277,347.345,110.132,335.25,110.132z M319.909,82.92
			c0,12.654,7.279,20.269,15.454,20.269c7.502,0,14.894-6.495,14.894-19.373c0-13.998-7.839-20.493-15.23-20.493
			C327.188,63.322,319.909,70.377,319.909,82.92z"/>
		<path d="M391.242,110.132c-12.879,0-23.853-10.975-23.853-26.54c0-15.79,11.198-27.101,24.188-27.101
			c11.646,0,22.732,9.183,22.732,26.876C414.311,100.277,403.336,110.132,391.242,110.132z M375.9,82.92
			c0,12.654,7.278,20.269,15.453,20.269c7.503,0,14.895-6.495,14.895-19.373c0-13.998-7.839-20.493-15.23-20.493
			C383.179,63.322,375.9,70.377,375.9,82.92z"/>
		<path d="M462.462,71.498c-0.224,0-0.56-0.225-0.56-0.896c0-0.336,0.111-0.784-0.225-1.12c-2.016-2.464-6.942-7.055-14.222-7.055
			c-5.823,0-10.751,2.911-10.751,7.055c0,1.68,0.896,4.255,5.04,6.271c4.703,2.352,12.99,3.472,18.813,6.719
			c6.047,3.359,7.503,7.951,7.503,11.534c0,7.728-7.279,15.902-21.277,15.902c-7.727,0-15.565-2.464-21.613-8.063l4.592-8.062
			c0.56,0.224,0.56,0.896,0.56,1.008c0,0.448-0.111,0.784,0.225,1.231c1.68,1.904,7.391,7.167,16.125,7.167
			c7.279,0,13.103-3.359,13.103-8.175c0-1.903-0.896-4.479-5.151-6.495c-3.808-1.791-9.295-3.135-13.662-4.703
			c-2.8-1.008-12.542-4.144-12.542-13.103c0-7.614,7.839-14.333,19.709-14.333c7.503,0,14.334,2.912,19.037,8.063L462.462,71.498z"
			/>
		<path d="M488.89,38.91c0.111,0.784-0.448,1.344-0.672,1.68c-0.336,0.448-0.336,0.784-0.336,1.231v29.34l29.115-32.699
			c1.904,0.448,3.92,0.56,5.823,0.56h2.912l-26.429,30.124l28.22,39.755c-5.486,0-9.966,0.336-9.966,0.336L493.369,73.85
			l-5.487,6.047v28.892h-8.399V38.91H488.89z"/>
		<path d="M559.215,110.132c-12.879,0-23.853-10.975-23.853-26.54c0-15.79,11.198-27.101,24.188-27.101
			c11.646,0,22.732,9.183,22.732,26.876C582.283,100.277,571.309,110.132,559.215,110.132z M543.873,82.92
			c0,12.654,7.278,20.269,15.453,20.269c7.503,0,14.895-6.495,14.895-19.373c0-13.998-7.839-20.493-15.23-20.493
			C551.151,63.322,543.873,70.377,543.873,82.92z"/>
		<path d="M615.205,110.132c-12.879,0-23.853-10.975-23.853-26.54c0-15.79,11.198-27.101,24.188-27.101
			c11.646,0,22.732,9.183,22.732,26.876C638.273,100.277,627.299,110.132,615.205,110.132z M599.863,82.92
			c0,12.654,7.278,20.269,15.453,20.269c7.503,0,14.895-6.495,14.895-19.373c0-13.998-7.839-20.493-15.23-20.493
			C607.142,63.322,599.863,70.377,599.863,82.92z"/>
		<path d="M659.325,34.318c0.112,0.784-0.336,1.344-0.56,1.68c-0.336,0.448-0.448,0.784-0.448,1.231v43.898l25.645-23.741
			c2.016,0.448,3.92,0.56,5.936,0.56h2.911l-21.612,20.27l25.196,30.684h-0.784c-5.375,0-9.631,0.336-9.631,0.336l-20.94-26.093
			l-6.72,6.383V108.9h-8.175V34.318H659.325z"/>
		<path d="M728.643,42.493c0.336,1.12-0.447,1.792-0.672,3.024c-0.56,2.799-1.231,11.982-1.231,11.982h16.686v6.719h-16.798
			c-0.672,6.719-1.008,13.326-1.008,20.045c0,7.391,0.336,9.406,0.336,9.854c0.784,6.159,4.815,8.175,8.623,8.175
			c3.136,0,7.055-1.344,11.423-4.592l2.463,6.384c-4.367,3.136-10.302,5.711-16.35,5.711c-5.263,0-9.295-2.016-11.646-5.487
			c-2.911-4.255-3.023-9.295-3.023-13.886c0-8.735,0.448-17.47,1.12-26.204h-11.982l0.112-6.607H718.9l0.896-13.662L728.643,42.493z
			"/>
	</g>
</g>
<g id="Layer_1">
</g>
</svg>
